<svg width="52" height="49" viewBox="0 0 52 49" fill="none" xmlns="http://www.w3.org/2000/svg">
<path d="M48.3548 39.7252C44.503 45.3751 36.9711 48.2402 25.972 48.2402L25.9535 48.2402C14.9708 48.237 7.45737 45.371 3.62219 39.7218C0.411725 34.9925 -2.51111e-06 28.9639 -2.09814e-06 24.2402C-1.6852e-06 19.5166 0.411727 13.4884 3.62219 8.75924C7.45737 3.11017 14.9708 0.244004 25.9539 0.240237L25.9754 0.240237C36.9743 0.240049 44.503 3.10459 48.3546 8.75454C51.5857 13.494 52 19.5199 52 24.2402C52 28.9604 51.5857 34.9861 48.3548 39.7252Z" fill="#0A122A"/>
<path d="M23.4649 11.7471C21.4691 11.7471 19.853 13.3445 19.853 15.3171V17.4142H25.2709C25.7635 17.4142 26.1689 18.127 26.1689 18.6139H17.149C15.1532 18.6139 13.5371 20.2112 13.5371 22.1838V26.9046C13.5371 28.8772 15.1532 30.4745 17.149 30.4745H18.6392V27.1289C18.6392 25.1563 20.2455 23.559 22.2413 23.559H28.873C30.8688 23.559 32.4849 21.9714 32.4849 19.9988V15.317C32.4849 13.3444 30.8688 11.7471 28.873 11.7471L23.4649 11.7471ZM22.557 13.7565C23.0623 13.7565 23.4649 13.9075 23.4649 14.6441C23.4649 15.3807 23.0623 15.756 22.557 15.756C22.0643 15.756 21.6589 15.3807 21.6589 14.6441C21.6589 13.9075 22.0643 13.7565 22.557 13.7565Z" fill="#E6C430"/>
<path d="M33.6957 17.9888V21.3343C33.6957 23.307 32.092 24.9043 30.0962 24.9043H23.4645C21.4687 24.9043 19.8525 26.4893 19.8525 28.462V33.1438C19.8523 33.6128 19.9456 34.0772 20.127 34.5105C20.3084 34.9439 20.5744 35.3377 20.9098 35.6694C21.2452 36.0012 21.6435 36.2643 22.0818 36.4439C22.5201 36.6235 22.99 36.716 23.4645 36.7161H28.8724C29.3469 36.716 29.8167 36.6235 30.2551 36.4439C30.6934 36.2643 31.0916 36.0012 31.4271 35.6694C31.7625 35.3377 32.0285 34.9439 32.2099 34.5105C32.3913 34.0772 32.4845 33.6128 32.4843 33.1438V31.0467H27.064C26.5714 31.0467 26.1685 30.3363 26.1685 29.8494H35.1883C35.6628 29.8493 36.1327 29.7568 36.571 29.5773C37.0093 29.3977 37.4076 29.1345 37.743 28.8028C38.0784 28.471 38.3444 28.0772 38.5258 27.6439C38.7072 27.2105 38.8005 26.7461 38.8003 26.2771V21.5587C38.8001 20.612 38.4194 19.7041 37.7421 19.0346C37.0648 18.3652 36.1462 17.989 35.1883 17.9888L33.6957 17.9888ZM21.5203 23.6241L21.5154 23.6289C21.5305 23.6259 21.5471 23.6269 21.5623 23.6241H21.5203ZM29.7804 32.7073C30.273 32.7073 30.6784 33.0826 30.6784 33.8192C30.6781 34.0543 30.5833 34.2796 30.4149 34.4456C30.2464 34.6116 30.0182 34.7047 29.7804 34.7044C29.2751 34.7044 28.8725 34.5559 28.8725 33.8192C28.8725 33.0826 29.2751 32.7073 29.7804 32.7073Z" fill="#E6C430"/>
</svg>
